<mxfile host="app.diagrams.net" modified="2020-04-03T02:44:07.818Z" agent="5.0 (Windows NT 6.1; Win64; x64) AppleWebKit/537.36 (KHTML, like Gecko) Chrome/80.0.3987.132 Safari/537.36" etag="TOP7vUQ9MRHq4cHLDIiX" version="12.9.6" type="github">
  <diagram id="9UC1ZBUf9r_J20Ng0Syh" name="Page-1">
    <mxGraphModel dx="868" dy="450" grid="1" gridSize="10" guides="1" tooltips="1" connect="1" arrows="1" fold="1" page="1" pageScale="1" pageWidth="827" pageHeight="1169" math="0" shadow="0">
      <root>
        <mxCell id="0" />
        <mxCell id="1" parent="0" />
        <mxCell id="mh5o7TWo_xymcsIFWV8s-2" value="" style="rounded=0;whiteSpace=wrap;html=1;" parent="1" vertex="1">
          <mxGeometry x="154" y="90" width="436" height="300" as="geometry" />
        </mxCell>
        <mxCell id="mh5o7TWo_xymcsIFWV8s-3" value="" style="rounded=0;whiteSpace=wrap;html=1;" parent="1" vertex="1">
          <mxGeometry x="530" y="90" width="60" height="20" as="geometry" />
        </mxCell>
        <mxCell id="mh5o7TWo_xymcsIFWV8s-5" value="" style="whiteSpace=wrap;html=1;aspect=fixed;" parent="1" vertex="1">
          <mxGeometry x="550" y="90" width="20" height="20" as="geometry" />
        </mxCell>
        <mxCell id="mh5o7TWo_xymcsIFWV8s-6" value="" style="whiteSpace=wrap;html=1;aspect=fixed;" parent="1" vertex="1">
          <mxGeometry x="570" y="90" width="20" height="20" as="geometry" />
        </mxCell>
        <mxCell id="mh5o7TWo_xymcsIFWV8s-10" value="" style="whiteSpace=wrap;html=1;aspect=fixed;" parent="1" vertex="1">
          <mxGeometry x="555" y="95" width="10" height="10" as="geometry" />
        </mxCell>
        <mxCell id="mh5o7TWo_xymcsIFWV8s-14" value="X" style="text;html=1;strokeColor=none;fillColor=none;align=center;verticalAlign=middle;whiteSpace=wrap;rounded=0;" parent="1" vertex="1">
          <mxGeometry x="570" y="90" width="20" height="20" as="geometry" />
        </mxCell>
        <mxCell id="mh5o7TWo_xymcsIFWV8s-15" value="__" style="text;html=1;strokeColor=none;fillColor=none;align=center;verticalAlign=middle;whiteSpace=wrap;rounded=0;" parent="1" vertex="1">
          <mxGeometry x="530" y="90" width="20" height="10" as="geometry" />
        </mxCell>
        <mxCell id="mh5o7TWo_xymcsIFWV8s-16" value="" style="rounded=0;whiteSpace=wrap;html=1;" parent="1" vertex="1">
          <mxGeometry x="172" y="120" width="400" height="250" as="geometry" />
        </mxCell>
        <mxCell id="gdXGXOabAmyN3bZzSzjE-11" value="" style="line;strokeWidth=4;direction=south;html=1;perimeter=backbonePerimeter;points=[];outlineConnect=0;" parent="1" vertex="1">
          <mxGeometry x="367" y="120" width="10" height="250" as="geometry" />
        </mxCell>
        <mxCell id="gdXGXOabAmyN3bZzSzjE-12" value="" style="line;strokeWidth=2;html=1;" parent="1" vertex="1">
          <mxGeometry x="170" y="240" width="404" height="10" as="geometry" />
        </mxCell>
        <mxCell id="gdXGXOabAmyN3bZzSzjE-14" value="BMI" style="text;html=1;strokeColor=none;fillColor=none;align=center;verticalAlign=middle;whiteSpace=wrap;rounded=0;fontSize=23;" parent="1" vertex="1">
          <mxGeometry x="200" y="140" width="130" height="80" as="geometry" />
        </mxCell>
        <mxCell id="gdXGXOabAmyN3bZzSzjE-15" value="BMR" style="text;html=1;strokeColor=none;fillColor=none;align=center;verticalAlign=middle;whiteSpace=wrap;rounded=0;fontSize=23;" parent="1" vertex="1">
          <mxGeometry x="414" y="140" width="130" height="80" as="geometry" />
        </mxCell>
        <mxCell id="gdXGXOabAmyN3bZzSzjE-16" value="Body Type" style="text;html=1;strokeColor=none;fillColor=none;align=center;verticalAlign=middle;whiteSpace=wrap;rounded=0;fontSize=23;" parent="1" vertex="1">
          <mxGeometry x="200" y="270" width="130" height="80" as="geometry" />
        </mxCell>
        <mxCell id="gdXGXOabAmyN3bZzSzjE-17" value="Healthy Weight" style="text;html=1;strokeColor=none;fillColor=none;align=center;verticalAlign=middle;whiteSpace=wrap;rounded=0;fontSize=23;" parent="1" vertex="1">
          <mxGeometry x="410" y="270" width="130" height="80" as="geometry" />
        </mxCell>
      </root>
    </mxGraphModel>
  </diagram>
</mxfile>
